<?xml version="1.0" encoding="UTF-8"?>
<!DOCTYPE svg PUBLIC "-//W3C//DTD SVG 1.1//EN" "http://www.w3.org/Graphics/SVG/1.1/DTD/svg11.dtd">
<svg xmlns="http://www.w3.org/2000/svg" version="1.1" width="2560px" height="942px" style="shape-rendering:geometricPrecision; text-rendering:geometricPrecision; image-rendering:optimizeQuality; fill-rule:evenodd; clip-rule:evenodd" xmlns:xlink="http://www.w3.org/1999/xlink">
<g><path style="opacity:0.997" fill="#3367af" d="M 1422.5,-0.5 C 1422.83,-0.5 1423.17,-0.5 1423.5,-0.5C 1456.08,47.2518 1488.08,95.4185 1519.5,144C 1474.51,169.162 1429.18,193.829 1383.5,218C 1423.05,219.244 1459.39,230.411 1492.5,251.5C 1492.83,270.008 1492.5,288.341 1491.5,306.5C 1451.89,272.582 1405.89,258.416 1353.5,264C 1302.78,269.525 1260.12,290.692 1225.5,327.5C 1196.79,361.141 1184.62,400.141 1189,444.5C 1197.15,509.604 1232.65,551.77 1295.5,571C 1327.56,579.819 1359.9,580.819 1392.5,574C 1427.88,566.711 1461.21,554.211 1492.5,536.5C 1492.17,553.009 1492.5,569.342 1493.5,585.5C 1476.11,595.026 1457.78,602.526 1438.5,608C 1416.32,615.03 1393.65,619.697 1370.5,622C 1369.17,629.932 1369.17,637.765 1370.5,645.5C 1370.5,692.833 1370.5,740.167 1370.5,787.5C 1277.28,741.721 1184.28,695.721 1091.5,649.5C 1090.52,633.244 1090.18,616.911 1090.5,600.5C 1161.83,636.167 1233.17,671.833 1304.5,707.5C 1311.25,711.377 1318.25,715.044 1325.5,718.5C 1326.5,686.174 1326.83,653.84 1326.5,621.5C 1255.53,614.877 1201.87,581.21 1165.5,520.5C 1120.81,502.82 1076.15,485.154 1031.5,467.5C 1072.5,424.167 1113.5,380.833 1154.5,337.5C 1161.3,330.53 1167.97,323.364 1174.5,316C 1145.97,288.966 1117.63,261.8 1089.5,234.5C 1090.17,216.5 1090.83,198.5 1091.5,180.5C 1128.17,212.833 1164.83,245.167 1201.5,277.5C 1203,280.532 1205.33,282.032 1208.5,282C 1228.81,263.166 1251.81,248.333 1277.5,237.5C 1267.82,225.164 1257.82,213.164 1247.5,201.5C 1274.07,171.354 1300.4,141.02 1326.5,110.5C 1337.54,98.1263 1348.21,85.4597 1358.5,72.5C 1365.17,65.8246 1371.51,58.8246 1377.5,51.5C 1392.5,34.1667 1407.5,16.8333 1422.5,-0.5 Z M 1143.5,410.5 C 1143.03,429.781 1144.37,449.114 1147.5,468.5C 1132.15,463.55 1117.15,457.716 1102.5,451C 1116.06,437.271 1129.73,423.771 1143.5,410.5 Z"/></g>
<g><path style="opacity:0.983" fill="#18376d" d="M 1420.5,-0.5 C 1421.17,-0.5 1421.83,-0.5 1422.5,-0.5C 1407.5,16.8333 1392.5,34.1667 1377.5,51.5C 1373.86,48.3411 1370.2,45.1744 1366.5,42C 1365.21,41.51 1363.87,41.3433 1362.5,41.5C 1367.55,34.2677 1373.22,27.4344 1379.5,21C 1393.54,14.3139 1407.21,7.14728 1420.5,-0.5 Z"/></g>
<g><path style="opacity:0.972" fill="#13447e" d="M 1362.5,41.5 C 1363.87,41.3433 1365.21,41.51 1366.5,42C 1370.2,45.1744 1373.86,48.3411 1377.5,51.5C 1371.51,58.8246 1365.17,65.8246 1358.5,72.5C 1354.5,67.4702 1350.16,63.4702 1345.5,60.5C 1350.82,53.8431 1356.49,47.5097 1362.5,41.5 Z"/></g>
<g><path style="opacity:1" fill="#c69f0b" d="M 1439.5,146.5 C 1428.35,130.892 1417.19,115.225 1406,99.5C 1402.7,95.1684 1399.2,91.1684 1395.5,87.5C 1401.46,79.2634 1408.13,71.5967 1415.5,64.5C 1432.62,87.2441 1449.62,110.077 1466.5,133C 1457.5,137.498 1448.5,141.998 1439.5,146.5 Z"/></g>
<g><path style="opacity:1" fill="#fdca08" d="M 1395.5,87.5 C 1399.2,91.1684 1402.7,95.1684 1406,99.5C 1417.19,115.225 1428.35,130.892 1439.5,146.5C 1399.98,166.425 1360.32,186.092 1320.5,205.5C 1317.17,201.331 1314.01,196.997 1311,192.5C 1310.33,191.167 1310.33,189.833 1311,188.5C 1339.41,154.935 1367.57,121.269 1395.5,87.5 Z"/></g>
<g><path style="opacity:0.983" fill="#0c5493" d="M 1345.5,60.5 C 1350.16,63.4702 1354.5,67.4702 1358.5,72.5C 1348.21,85.4597 1337.54,98.1263 1326.5,110.5C 1322.13,106.126 1317.46,102.126 1312.5,98.5C 1323.04,85.419 1334.04,72.7524 1345.5,60.5 Z"/></g>
<g><path style="opacity:0.983" fill="#026db3" d="M 1312.5,98.5 C 1317.46,102.126 1322.13,106.126 1326.5,110.5C 1300.4,141.02 1274.07,171.354 1247.5,201.5C 1232.81,208.847 1218.14,216.18 1203.5,223.5C 1239.49,181.512 1275.82,139.845 1312.5,98.5 Z"/></g>
<g><path style="opacity:0.991" fill="#1d2c5e" d="M 1056.5,149.5 C 1039.61,182.937 1022.45,216.27 1005,249.5C 1004.18,227.784 1004.68,206.118 1006.5,184.5C 1009.18,180.98 1011.52,177.147 1013.5,173C 1027.86,165.154 1042.19,157.321 1056.5,149.5 Z"/></g>
<g><path style="opacity:0.997" fill="#3564ad" d="M 1056.5,149.5 C 1068.49,159.491 1080.16,169.824 1091.5,180.5C 1090.83,198.5 1090.17,216.5 1089.5,234.5C 1083.84,229.004 1078,223.671 1072,218.5C 1066.16,226.862 1060.32,235.196 1054.5,243.5C 1025.75,284.01 996.745,324.343 967.5,364.5C 964.605,316.162 961.605,267.829 958.5,219.5C 949.347,221.217 940.347,223.55 931.5,226.5C 931.5,210.167 931.5,193.833 931.5,177.5C 956.077,169.308 980.743,161.308 1005.5,153.5C 1006.5,163.812 1006.83,174.145 1006.5,184.5C 1004.68,206.118 1004.18,227.784 1005,249.5C 1022.45,216.27 1039.61,182.937 1056.5,149.5 Z"/></g>
<g><path style="opacity:0.997" fill="#306cb3" d="M 1958.5,378.5 C 1960.48,393.129 1961.15,408.129 1960.5,423.5C 1947.97,431.697 1936.63,441.363 1926.5,452.5C 1893.73,487.621 1878.9,529.288 1882,577.5C 1887.63,616.636 1907.13,646.469 1940.5,667C 1946.84,670.673 1953.51,673.506 1960.5,675.5C 1960.17,712.239 1960.51,748.906 1961.5,785.5C 1902.15,775.163 1842.82,764.829 1783.5,754.5C 1780.26,723.099 1776.43,691.766 1772,660.5C 1762.33,679.167 1752.67,697.833 1743,716.5C 1726.41,686.994 1710.08,657.327 1694,627.5C 1690.62,649.384 1687.12,671.217 1683.5,693C 1652.85,690 1622.51,685.5 1592.5,679.5C 1592.5,665.5 1592.5,651.5 1592.5,637.5C 1607.48,639.941 1622.48,642.275 1637.5,644.5C 1643.91,646.344 1650.58,647.344 1657.5,647.5C 1665.92,593.12 1674.59,538.787 1683.5,484.5C 1703.23,525.464 1722.9,567.131 1742.5,609.5C 1744.71,614.928 1747.21,620.261 1750,625.5C 1764.47,588.582 1778.64,551.582 1792.5,514.5C 1792.78,513.711 1793.28,513.044 1794,512.5C 1804.41,580.817 1814.75,649.15 1825,717.5C 1854.66,723.047 1884.49,727.714 1914.5,731.5C 1923.26,733.561 1932.26,734.895 1941.5,735.5C 1940.49,726.118 1939.16,716.785 1937.5,707.5C 1892.74,688.238 1863.24,655.238 1849,608.5C 1834.6,549.218 1845.27,494.884 1881,445.5C 1884.95,439.877 1889.29,434.543 1894,429.5C 1894.17,428.5 1894.33,427.5 1894.5,426.5C 1883.42,356.214 1872.76,285.881 1862.5,215.5C 1835.83,215.333 1809.16,215.5 1782.5,216C 1780.69,223.048 1779.35,230.214 1778.5,237.5C 1769.4,286.75 1760.74,336.083 1752.5,385.5C 1751.88,385.611 1751.38,385.944 1751,386.5C 1741.84,337.549 1733.01,288.549 1724.5,239.5C 1687.17,239.5 1649.83,239.5 1612.5,239.5C 1611.39,246.484 1610.39,253.484 1609.5,260.5C 1604.03,292.634 1598.37,324.634 1592.5,356.5C 1592.5,303.833 1592.5,251.167 1592.5,198.5C 1586.31,198.823 1580.31,198.49 1574.5,197.5C 1615.5,197.667 1656.5,197.5 1697.5,197C 1711.48,187.67 1726.15,179.336 1741.5,172C 1793.5,171.5 1845.5,171.333 1897.5,171.5C 1909.01,245.546 1920.84,319.546 1933,393.5C 1940.88,387.449 1949.38,382.449 1958.5,378.5 Z"/></g>
<g><path style="opacity:0.998" fill="#3761ab" d="M 931.5,177.5 C 931.5,193.833 931.5,210.167 931.5,226.5C 893.3,238.233 854.967,249.566 816.5,260.5C 816.5,265.5 816.5,270.5 816.5,275.5C 816.992,283.506 817.658,291.506 818.5,299.5C 831.408,295.69 844.408,292.357 857.5,289.5C 861.721,339.815 865.887,390.149 870,440.5C 905.759,477.094 921.759,521.094 918,572.5C 915.321,604.871 905.988,635.204 890,663.5C 891.664,688.47 893.164,713.47 894.5,738.5C 906.832,737.167 919.165,735.834 931.5,734.5C 931.5,749.167 931.5,763.833 931.5,778.5C 907.181,782.275 882.848,785.942 858.5,789.5C 856.608,764.133 854.275,738.799 851.5,713.5C 801.559,760.98 742.226,780.814 673.5,773C 625.793,763.741 588.793,738.907 562.5,698.5C 556.09,687.68 550.757,676.347 546.5,664.5C 542.562,653.146 539.895,641.48 538.5,629.5C 537.399,615.149 537.232,600.816 538,586.5C 532.294,591.71 526.461,596.71 520.5,601.5C 520.83,580.993 520.497,560.66 519.5,540.5C 520.5,539.167 521.5,537.833 522.5,536.5C 558.671,499.826 580.838,455.826 589,404.5C 592.257,355.522 575.09,315.355 537.5,284C 531.599,279.252 525.599,274.752 519.5,270.5C 520.497,253.008 520.83,235.341 520.5,217.5C 559.484,236.985 590.317,265.318 613,302.5C 635.163,342.634 641.33,385.134 631.5,430C 631.833,430.5 632.167,431 632.5,431.5C 675.977,401.298 723.977,388.964 776.5,394.5C 792.495,397.442 807.995,402.109 823,408.5C 821.557,388.517 819.89,368.517 818,348.5C 817.781,347.062 817.281,345.729 816.5,344.5C 803.7,348.617 790.7,351.95 777.5,354.5C 777.451,347.151 777.118,339.817 776.5,332.5C 776.714,320.631 776.047,308.964 774.5,297.5C 774.827,287.985 774.494,278.652 773.5,269.5C 773.135,255.834 772.802,242.168 772.5,228.5C 825.258,211.054 878.258,194.054 931.5,177.5 Z"/></g>
<g><path style="opacity:0.997" fill="#3a5ca7" d="M 520.5,217.5 C 520.83,235.341 520.497,253.008 519.5,270.5C 508.223,263.753 496.556,257.586 484.5,252C 431.13,235.354 376.796,231.354 321.5,240C 240.738,253.567 166.071,282.401 97.5,326.5C 98.3611,328.911 99.6944,330.911 101.5,332.5C 122.891,369.609 144.558,406.609 166.5,443.5C 167.365,444.583 168.365,444.749 169.5,444C 184.562,436.469 199.562,428.969 214.5,421.5C 265.591,533.083 315.924,645.083 365.5,757.5C 365.5,794.167 365.5,830.833 365.5,867.5C 336.833,804.167 308.167,740.833 279.5,677.5C 270.105,655.711 260.439,634.044 250.5,612.5C 244.105,597.378 237.439,582.378 230.5,567.5C 224.5,554.167 218.5,540.833 212.5,527.5C 206.362,512.56 199.696,497.894 192.5,483.5C 178.379,490.644 164.213,497.644 150,504.5C 149.617,503.944 149.117,503.611 148.5,503.5C 140.224,488.568 131.557,473.901 122.5,459.5C 118.07,451.631 113.403,443.964 108.5,436.5C 103.919,426.997 98.5857,417.997 92.5,409.5C 88.0019,400.499 83.0019,391.832 77.5,383.5C 73.0701,375.631 68.4034,367.964 63.5,360.5C 59.0019,351.499 54.0019,342.832 48.5,334.5C 44.0701,326.631 39.4034,318.964 34.5,311.5C 114.015,254.595 202.015,216.429 298.5,197C 358.791,185.906 418.791,187.239 478.5,201C 493.111,205.035 507.111,210.535 520.5,217.5 Z"/></g>
<g><path style="opacity:1" fill="#3169b1" d="M 1573.5,197.5 C 1573.83,197.5 1574.17,197.5 1574.5,197.5C 1580.31,198.49 1586.31,198.823 1592.5,198.5C 1592.5,251.167 1592.5,303.833 1592.5,356.5C 1587.44,389.699 1582.11,422.865 1576.5,456C 1576.99,458.503 1578.32,460.503 1580.5,462C 1590.8,470.63 1600.8,479.63 1610.5,489C 1595.03,505.471 1579.2,521.638 1563,537.5C 1557.51,568.119 1552.34,598.786 1547.5,629.5C 1562.59,631.847 1577.59,634.514 1592.5,637.5C 1592.5,651.5 1592.5,665.5 1592.5,679.5C 1560.57,675.376 1528.91,670.376 1497.5,664.5C 1502.12,635.128 1506.62,605.794 1511,576.5C 1505.5,580.164 1499.67,583.164 1493.5,585.5C 1492.5,569.342 1492.17,553.009 1492.5,536.5C 1503.37,529.565 1513.7,521.898 1523.5,513.5C 1530.76,507.74 1537.6,501.407 1544,494.5C 1544.67,493.833 1544.67,493.167 1544,492.5C 1519.97,470.13 1495.63,448.13 1471,426.5C 1464.3,434.365 1457.13,441.698 1449.5,448.5C 1447.77,449.026 1446.44,450.026 1445.5,451.5C 1421.31,469.022 1394.64,476.689 1365.5,474.5C 1406.17,431.828 1446.51,388.828 1486.5,345.5C 1493.45,338.214 1500.45,330.88 1507.5,323.5C 1502.15,317.813 1496.81,312.146 1491.5,306.5C 1492.5,288.341 1492.83,270.008 1492.5,251.5C 1502.55,257.527 1511.88,264.527 1520.5,272.5C 1532.56,284.889 1543.89,297.889 1554.5,311.5C 1558.27,290.9 1561.6,270.234 1564.5,249.5C 1567.7,232.32 1570.7,214.987 1573.5,197.5 Z"/></g>
<g><path style="opacity:0.996" fill="#1d2c5e" d="M 1247.5,201.5 C 1257.82,213.164 1267.82,225.164 1277.5,237.5C 1251.81,248.333 1228.81,263.166 1208.5,282C 1205.33,282.032 1203,280.532 1201.5,277.5C 1211.94,271.441 1222.61,265.608 1233.5,260C 1223.29,247.96 1213.29,235.793 1203.5,223.5C 1218.14,216.18 1232.81,208.847 1247.5,201.5 Z"/></g>
<g><path style="opacity:0.991" fill="#164782" d="M 1573.5,197.5 C 1570.7,214.987 1567.7,232.32 1564.5,249.5C 1552.36,242.928 1540.69,235.595 1529.5,227.5C 1529.47,224.801 1530.13,222.301 1531.5,220C 1545.39,212.22 1559.39,204.72 1573.5,197.5 Z"/></g>
<g><path style="opacity:1" fill="#c69f0c" d="M 1914.5,731.5 C 1915.5,731.5 1916.5,731.5 1917.5,731.5C 1917.5,730.5 1917.5,729.5 1917.5,728.5C 1869.69,707.84 1839.19,672.173 1826,621.5C 1814.01,556.821 1829.67,499.821 1873,450.5C 1873.17,449.333 1873.33,448.167 1873.5,447C 1862.88,376.808 1852.22,306.641 1841.5,236.5C 1820.42,236.179 1799.42,236.512 1778.5,237.5C 1779.35,230.214 1780.69,223.048 1782.5,216C 1809.16,215.5 1835.83,215.333 1862.5,215.5C 1872.76,285.881 1883.42,356.214 1894.5,426.5C 1894.33,427.5 1894.17,428.5 1894,429.5C 1889.29,434.543 1884.95,439.877 1881,445.5C 1845.27,494.884 1834.6,549.218 1849,608.5C 1863.24,655.238 1892.74,688.238 1937.5,707.5C 1939.16,716.785 1940.49,726.118 1941.5,735.5C 1932.26,734.895 1923.26,733.561 1914.5,731.5 Z"/></g>
<g><path style="opacity:0.998" fill="#2d6fb6" d="M 2095.5,214.5 C 2116.58,218.916 2137.58,223.583 2158.5,228.5C 2158.5,243.167 2158.5,257.833 2158.5,272.5C 2157.5,272.5 2156.5,272.5 2155.5,272.5C 2149.15,271.629 2142.81,270.629 2136.5,269.5C 2135.83,279.5 2135.17,289.5 2134.5,299.5C 2134.5,303.5 2134.5,307.5 2134.5,311.5C 2142.58,313.188 2150.58,315.188 2158.5,317.5C 2158.83,363.336 2158.5,409.003 2157.5,454.5C 2138.09,422.441 2109.76,403.274 2072.5,397C 2031.7,391.524 1994.37,400.357 1960.5,423.5C 1961.15,408.129 1960.48,393.129 1958.5,378.5C 1987.79,363.012 2019.12,355.346 2052.5,355.5C 2059.67,356.755 2067,357.755 2074.5,358.5C 2085.87,359.781 2096.87,362.448 2107.5,366.5C 2114.72,368.91 2121.72,371.91 2128.5,375.5C 2130.16,368.276 2131.16,360.942 2131.5,353.5C 2120.74,350.31 2109.74,347.643 2098.5,345.5C 2096.85,318.888 2095.85,292.221 2095.5,265.5C 2095.5,248.5 2095.5,231.5 2095.5,214.5 Z"/></g>
<g><path style="opacity:1" fill="#c59f0e" d="M 967.5,364.5 C 960.886,374.287 954.053,383.954 947,393.5C 943.391,342.203 940.558,290.87 938.5,239.5C 897.727,251.193 857.06,263.193 816.5,275.5C 816.5,270.5 816.5,265.5 816.5,260.5C 854.967,249.566 893.3,238.233 931.5,226.5C 940.347,223.55 949.347,221.217 958.5,219.5C 961.605,267.829 964.605,316.162 967.5,364.5 Z"/></g>
<g><path style="opacity:1" fill="#c69f0b" d="M 1089.5,234.5 C 1117.63,261.8 1145.97,288.966 1174.5,316C 1167.97,323.364 1161.3,330.53 1154.5,337.5C 1150.43,331.925 1145.77,326.759 1140.5,322C 1112.86,296.7 1085.53,271.033 1058.5,245C 1057.26,244.209 1055.92,243.709 1054.5,243.5C 1060.32,235.196 1066.16,226.862 1072,218.5C 1078,223.671 1083.84,229.004 1089.5,234.5 Z"/></g>
<g><path style="opacity:1" fill="#c59f0c" d="M 519.5,270.5 C 525.599,274.752 531.599,279.252 537.5,284C 575.09,315.355 592.257,355.522 589,404.5C 580.838,455.826 558.671,499.826 522.5,536.5C 539.558,513.391 552.724,488.058 562,460.5C 580.94,394.657 563.44,340.823 509.5,299C 489.542,284.073 467.542,273.073 443.5,266C 375.925,251.379 308.925,253.712 242.5,273C 192.965,287.114 145.965,306.947 101.5,332.5C 99.6944,330.911 98.3611,328.911 97.5,326.5C 166.071,282.401 240.738,253.567 321.5,240C 376.796,231.354 431.13,235.354 484.5,252C 496.556,257.586 508.223,263.753 519.5,270.5 Z"/></g>
<g><path style="opacity:1" fill="#feca06" d="M 1914.5,731.5 C 1884.49,727.714 1854.66,723.047 1825,717.5C 1814.75,649.15 1804.41,580.817 1794,512.5C 1793.28,513.044 1792.78,513.711 1792.5,514.5C 1785.87,520.631 1779.37,526.964 1773,533.5C 1763.48,559.246 1753.32,584.579 1742.5,609.5C 1722.9,567.131 1703.23,525.464 1683.5,484.5C 1676.54,490.964 1669.7,497.631 1663,504.5C 1654.96,551.072 1647.46,597.738 1640.5,644.5C 1639.5,644.5 1638.5,644.5 1637.5,644.5C 1622.48,642.275 1607.48,639.941 1592.5,637.5C 1577.59,634.514 1562.59,631.847 1547.5,629.5C 1552.34,598.786 1557.51,568.119 1563,537.5C 1579.2,521.638 1595.03,505.471 1610.5,489C 1600.8,479.63 1590.8,470.63 1580.5,462C 1578.32,460.503 1576.99,458.503 1576.5,456C 1582.11,422.865 1587.44,389.699 1592.5,356.5C 1598.37,324.634 1604.03,292.634 1609.5,260.5C 1640.83,260.5 1672.17,260.5 1703.5,260.5C 1712.53,310.544 1721.7,360.544 1731,410.5C 1738,403.5 1745,396.5 1752,389.5C 1752.49,388.207 1752.66,386.873 1752.5,385.5C 1760.74,336.083 1769.4,286.75 1778.5,237.5C 1799.42,236.512 1820.42,236.179 1841.5,236.5C 1852.22,306.641 1862.88,376.808 1873.5,447C 1873.33,448.167 1873.17,449.333 1873,450.5C 1829.67,499.821 1814.01,556.821 1826,621.5C 1839.19,672.173 1869.69,707.84 1917.5,728.5C 1917.5,729.5 1917.5,730.5 1917.5,731.5C 1916.5,731.5 1915.5,731.5 1914.5,731.5 Z"/></g>
<g><path style="opacity:1" fill="#c69f0b" d="M 1752.5,385.5 C 1752.66,386.873 1752.49,388.207 1752,389.5C 1745,396.5 1738,403.5 1731,410.5C 1721.7,360.544 1712.53,310.544 1703.5,260.5C 1672.17,260.5 1640.83,260.5 1609.5,260.5C 1610.39,253.484 1611.39,246.484 1612.5,239.5C 1649.83,239.5 1687.17,239.5 1724.5,239.5C 1733.01,288.549 1741.84,337.549 1751,386.5C 1751.38,385.944 1751.88,385.611 1752.5,385.5 Z"/></g>
<g><path style="opacity:1" fill="#feca05" d="M 967.5,364.5 C 996.745,324.343 1025.75,284.01 1054.5,243.5C 1055.92,243.709 1057.26,244.209 1058.5,245C 1085.53,271.033 1112.86,296.7 1140.5,322C 1145.77,326.759 1150.43,331.925 1154.5,337.5C 1113.5,380.833 1072.5,424.167 1031.5,467.5C 1025.56,473.938 1019.4,480.271 1013,486.5C 1012.31,487.332 1012.48,487.998 1013.5,488.5C 1057.17,506 1100.83,523.5 1144.5,541C 1180.97,601.594 1234.63,635.428 1305.5,642.5C 1305.83,664.34 1305.5,686.006 1304.5,707.5C 1233.17,671.833 1161.83,636.167 1090.5,600.5C 1055.19,582.847 1019.86,565.18 984.5,547.5C 983.893,547.624 983.56,547.957 983.5,548.5C 976.869,554.631 970.369,560.964 964,567.5C 963.5,621.499 963.333,675.499 963.5,729.5C 952.676,730.997 942.01,732.664 931.5,734.5C 919.165,735.834 906.832,737.167 894.5,738.5C 893.164,713.47 891.664,688.47 890,663.5C 905.988,635.204 915.321,604.871 918,572.5C 921.759,521.094 905.759,477.094 870,440.5C 865.887,390.149 861.721,339.815 857.5,289.5C 844.408,292.357 831.408,295.69 818.5,299.5C 817.658,291.506 816.992,283.506 816.5,275.5C 857.06,263.193 897.727,251.193 938.5,239.5C 940.558,290.87 943.391,342.203 947,393.5C 954.053,383.954 960.886,374.287 967.5,364.5 Z"/></g>
<g><path style="opacity:0.992" fill="#1b3164" d="M 2094.5,214.5 C 2094.5,226.167 2094.5,237.833 2094.5,249.5C 2080.12,250.995 2065.79,251.329 2051.5,250.5C 2051.2,245.901 2051.53,241.401 2052.5,237C 2066.37,229.233 2080.37,221.733 2094.5,214.5 Z"/></g>
<g><path style="opacity:1" fill="#feca05" d="M 522.5,536.5 C 521.5,537.833 520.5,539.167 519.5,540.5C 497.438,563.844 472.771,583.844 445.5,600.5C 437.702,605.476 430.369,610.976 423.5,617C 442.742,688.47 461.742,759.97 480.5,831.5C 457.048,839.262 433.548,846.928 410,854.5C 395.134,822.107 380.301,789.774 365.5,757.5C 315.924,645.083 265.591,533.083 214.5,421.5C 199.562,428.969 184.562,436.469 169.5,444C 168.365,444.749 167.365,444.583 166.5,443.5C 144.558,406.609 122.891,369.609 101.5,332.5C 145.965,306.947 192.965,287.114 242.5,273C 308.925,253.712 375.925,251.379 443.5,266C 467.542,273.073 489.542,284.073 509.5,299C 563.44,340.823 580.94,394.657 562,460.5C 552.724,488.058 539.558,513.391 522.5,536.5 Z M 423.5,417.5 C 446.936,420.774 458.27,434.274 457.5,458C 457.295,467.3 455.462,476.134 452,484.5C 453.704,482.627 455.537,480.96 457.5,479.5C 454.604,483.905 451.104,487.905 447,491.5C 438.473,467.085 430.64,442.418 423.5,417.5 Z"/></g>
<g><path style="opacity:0.997" fill="#193e76" d="M 1529.5,227.5 C 1540.69,235.595 1552.36,242.928 1564.5,249.5C 1561.6,270.234 1558.27,290.9 1554.5,311.5C 1543.89,297.889 1532.56,284.889 1520.5,272.5C 1521.69,272.03 1522.36,271.03 1522.5,269.5C 1524.65,255.449 1526.98,241.449 1529.5,227.5 Z"/></g>
<g><path style="opacity:0.995" fill="#18376d" d="M 772.5,228.5 C 772.802,242.168 773.135,255.834 773.5,269.5C 772.666,270.748 771.333,271.415 769.5,271.5C 756.123,273.006 742.789,274.672 729.5,276.5C 728.9,268.484 728.233,260.484 727.5,252.5C 742.078,243.711 757.078,235.711 772.5,228.5 Z"/></g>
<g><path style="opacity:1" fill="#c69f0b" d="M 1491.5,306.5 C 1496.81,312.146 1502.15,317.813 1507.5,323.5C 1500.45,330.88 1493.45,338.214 1486.5,345.5C 1470.41,324.426 1450.07,308.593 1425.5,298C 1366.12,275.798 1308.45,279.798 1252.5,310C 1243.33,315.689 1234.33,321.522 1225.5,327.5C 1260.12,290.692 1302.78,269.525 1353.5,264C 1405.89,258.416 1451.89,272.582 1491.5,306.5 Z"/></g>
<g><path style="opacity:0.995" fill="#2c72b8" d="M 2158.5,228.5 C 2215.47,240.961 2272.47,253.294 2329.5,265.5C 2330.79,273.939 2332.45,282.272 2334.5,290.5C 2338.01,310.531 2341.84,330.531 2346,350.5C 2353.1,325.439 2359.26,300.106 2364.5,274.5C 2429.63,289.699 2494.63,305.366 2559.5,321.5C 2559.5,327.5 2559.5,333.5 2559.5,339.5C 2497.53,525.753 2435.53,712.086 2373.5,898.5C 2324.41,883.581 2275.41,868.247 2226.5,852.5C 2225.5,833.178 2225.17,813.845 2225.5,794.5C 2203.18,791.44 2180.84,788.44 2158.5,785.5C 2158.5,771.5 2158.5,757.5 2158.5,743.5C 2171.81,745.629 2185.15,747.629 2198.5,749.5C 2204.3,750.911 2210.3,751.911 2216.5,752.5C 2229.32,676.221 2242.99,600.221 2257.5,524.5C 2259.41,623.511 2261.74,722.511 2264.5,821.5C 2286.79,827.989 2309.12,834.322 2331.5,840.5C 2335.28,842.122 2339.28,843.455 2343.5,844.5C 2344.65,844.182 2345.48,843.516 2346,842.5C 2400.06,678.807 2454.23,515.141 2508.5,351.5C 2507.97,350.808 2507.31,350.308 2506.5,350C 2468.77,341.712 2431.1,333.212 2393.5,324.5C 2390.71,332.651 2388.38,340.985 2386.5,349.5C 2370.85,413.423 2355.52,477.423 2340.5,541.5C 2322.87,461.11 2305.87,380.443 2289.5,299.5C 2244.62,290.99 2199.95,281.99 2155.5,272.5C 2156.5,272.5 2157.5,272.5 2158.5,272.5C 2158.5,257.833 2158.5,243.167 2158.5,228.5 Z"/></g>
<g><path style="opacity:1" fill="#c69f0b" d="M 2155.5,272.5 C 2199.95,281.99 2244.62,290.99 2289.5,299.5C 2305.87,380.443 2322.87,461.11 2340.5,541.5C 2333.87,548.632 2327.04,555.632 2320,562.5C 2302.6,481.54 2285.43,400.54 2268.5,319.5C 2224.15,311.664 2179.99,302.997 2136,293.5C 2135.81,295.708 2135.31,297.708 2134.5,299.5C 2135.17,289.5 2135.83,279.5 2136.5,269.5C 2142.81,270.629 2149.15,271.629 2155.5,272.5 Z"/></g>
<g><path style="opacity:0.995" fill="#193e76" d="M 2094.5,214.5 C 2094.83,214.5 2095.17,214.5 2095.5,214.5C 2095.5,231.5 2095.5,248.5 2095.5,265.5C 2095.5,271.5 2095.5,277.5 2095.5,283.5C 2080.71,283.523 2066.04,284.523 2051.5,286.5C 2051.5,274.5 2051.5,262.5 2051.5,250.5C 2065.79,251.329 2080.12,250.995 2094.5,249.5C 2094.5,237.833 2094.5,226.167 2094.5,214.5 Z"/></g>
<g><path style="opacity:0.993" fill="#1d2c5e" d="M 2364.5,274.5 C 2359.26,300.106 2353.1,325.439 2346,350.5C 2341.84,330.531 2338.01,310.531 2334.5,290.5C 2344.5,285.167 2354.5,279.833 2364.5,274.5 Z"/></g>
<g><path style="opacity:1" fill="#feca06" d="M 1486.5,345.5 C 1446.51,388.828 1406.17,431.828 1365.5,474.5C 1358.86,482.212 1351.86,489.712 1344.5,497C 1378.31,497.477 1407.98,486.81 1433.5,465C 1438.1,460.906 1442.1,456.406 1445.5,451.5C 1446.44,450.026 1447.77,449.026 1449.5,448.5C 1450.55,448.351 1451.55,448.517 1452.5,449C 1476.24,470.517 1499.91,492.017 1523.5,513.5C 1513.7,521.898 1503.37,529.565 1492.5,536.5C 1461.21,554.211 1427.88,566.711 1392.5,574C 1359.9,580.819 1327.56,579.819 1295.5,571C 1232.65,551.77 1197.15,509.604 1189,444.5C 1184.62,400.141 1196.79,361.141 1225.5,327.5C 1234.33,321.522 1243.33,315.689 1252.5,310C 1308.45,279.798 1366.12,275.798 1425.5,298C 1450.07,308.593 1470.41,324.426 1486.5,345.5 Z M 1356.5,374.5 C 1339.34,394.135 1322.17,413.802 1305,433.5C 1294.74,412.773 1296.91,393.44 1311.5,375.5C 1326.44,370.653 1341.44,370.32 1356.5,374.5 Z"/></g>
<g><path style="opacity:0.99" fill="#114781" d="M 773.5,269.5 C 774.494,278.652 774.827,287.985 774.5,297.5C 759.885,299.663 745.218,301.996 730.5,304.5C 729.871,295.18 729.538,285.846 729.5,276.5C 742.789,274.672 756.123,273.006 769.5,271.5C 771.333,271.415 772.666,270.748 773.5,269.5 Z"/></g>
<g><path style="opacity:1" fill="#feca06" d="M 2340.5,541.5 C 2355.52,477.423 2370.85,413.423 2386.5,349.5C 2420.22,356.295 2453.88,363.295 2487.5,370.5C 2436.27,526.679 2384.94,682.846 2333.5,839C 2333.16,840.03 2332.5,840.53 2331.5,840.5C 2309.12,834.322 2286.79,827.989 2264.5,821.5C 2261.74,722.511 2259.41,623.511 2257.5,524.5C 2257.63,523.761 2257.46,523.094 2257,522.5C 2249.97,529.527 2242.97,536.527 2236,543.5C 2224.45,608.121 2213.12,672.788 2202,737.5C 2201.48,741.937 2200.32,745.937 2198.5,749.5C 2185.15,747.629 2171.81,745.629 2158.5,743.5C 2148.21,741.588 2137.87,739.922 2127.5,738.5C 2129.88,716.18 2132.22,693.846 2134.5,671.5C 2143.52,664.479 2151.52,656.479 2158.5,647.5C 2200.23,599.451 2216.4,543.784 2207,480.5C 2199.94,448.372 2184.61,421.039 2161,398.5C 2162.32,372.108 2164.49,345.775 2167.5,319.5C 2164.46,318.99 2161.46,318.323 2158.5,317.5C 2150.58,315.188 2142.58,313.188 2134.5,311.5C 2134.5,307.5 2134.5,303.5 2134.5,299.5C 2135.31,297.708 2135.81,295.708 2136,293.5C 2179.99,302.997 2224.15,311.664 2268.5,319.5C 2285.43,400.54 2302.6,481.54 2320,562.5C 2327.04,555.632 2333.87,548.632 2340.5,541.5 Z"/></g>
<g><path style="opacity:0.987" fill="#1c2d5f" d="M 34.5,311.5 C 39.4034,318.964 44.0701,326.631 48.5,334.5C 48.6309,335.376 48.2975,336.043 47.5,336.5C 33.4464,343.859 19.4464,351.192 5.5,358.5C 3.73489,355.291 1.73489,352.291 -0.5,349.5C -0.5,348.167 -0.5,346.833 -0.5,345.5C 11.1667,334.167 22.8333,322.833 34.5,311.5 Z"/></g>
<g><path style="opacity:0.993" fill="#154f8c" d="M 2095.5,283.5 C 2095.5,296.833 2095.5,310.167 2095.5,323.5C 2081.17,324.237 2066.84,324.903 2052.5,325.5C 2052.69,312.48 2052.35,299.48 2051.5,286.5C 2066.04,284.523 2080.71,283.523 2095.5,283.5 Z"/></g>
<g><path style="opacity:1" fill="#2e71b6" d="M 2158.5,317.5 C 2161.46,318.323 2164.46,318.99 2167.5,319.5C 2164.49,345.775 2162.32,372.108 2161,398.5C 2184.61,421.039 2199.94,448.372 2207,480.5C 2216.4,543.784 2200.23,599.451 2158.5,647.5C 2158.83,624.994 2158.5,602.66 2157.5,580.5C 2174.35,544.788 2176.85,508.122 2165,470.5C 2162.76,465.02 2160.26,459.687 2157.5,454.5C 2158.5,409.003 2158.83,363.336 2158.5,317.5 Z"/></g>
<g><path style="opacity:1" fill="#c6a00b" d="M 2331.5,840.5 C 2332.5,840.53 2333.16,840.03 2333.5,839C 2384.94,682.846 2436.27,526.679 2487.5,370.5C 2453.88,363.295 2420.22,356.295 2386.5,349.5C 2388.38,340.985 2390.71,332.651 2393.5,324.5C 2431.1,333.212 2468.77,341.712 2506.5,350C 2507.31,350.308 2507.97,350.808 2508.5,351.5C 2454.23,515.141 2400.06,678.807 2346,842.5C 2345.48,843.516 2344.65,844.182 2343.5,844.5C 2339.28,843.455 2335.28,842.122 2331.5,840.5 Z"/></g>
<g><path style="opacity:0.996" fill="#0a5999" d="M 774.5,297.5 C 776.047,308.964 776.714,320.631 776.5,332.5C 764.187,334.081 751.853,335.581 739.5,337C 736.823,337.168 734.49,338.001 732.5,339.5C 731.667,327.848 731.001,316.182 730.5,304.5C 745.218,301.996 759.885,299.663 774.5,297.5 Z"/></g>
<g><path style="opacity:0.993" fill="#3667af" d="M 1300.5,474.5 C 1273.73,451.355 1264.23,422.355 1272,387.5C 1275.36,376.442 1280.53,366.442 1287.5,357.5C 1315.23,328.237 1347.89,321.07 1385.5,336C 1395.46,340.809 1404.12,347.309 1411.5,355.5C 1376.07,396.021 1340.4,436.355 1304.5,476.5C 1303.14,475.82 1301.81,475.153 1300.5,474.5 Z M 1356.5,374.5 C 1339.34,394.135 1322.17,413.802 1305,433.5C 1294.74,412.773 1296.91,393.44 1311.5,375.5C 1326.44,370.653 1341.44,370.32 1356.5,374.5 Z"/></g>
<g><path style="opacity:0.991" fill="#135b9c" d="M 2095.5,265.5 C 2095.85,292.221 2096.85,318.888 2098.5,345.5C 2097.13,345.343 2095.79,345.51 2094.5,346C 2087.66,349.922 2080.66,353.588 2073.5,357C 2074.06,357.383 2074.39,357.883 2074.5,358.5C 2067,357.755 2059.67,356.755 2052.5,355.5C 2052.5,345.5 2052.5,335.5 2052.5,325.5C 2066.84,324.903 2081.17,324.237 2095.5,323.5C 2095.5,310.167 2095.5,296.833 2095.5,283.5C 2095.5,277.5 2095.5,271.5 2095.5,265.5 Z"/></g>
<g><path style="opacity:0.994" fill="#1d2c5e" d="M 776.5,394.5 C 776.254,385.795 775.587,377.128 774.5,368.5C 761.534,371.658 748.534,374.658 735.5,377.5C 749.5,369.833 763.5,362.167 777.5,354.5C 790.7,351.95 803.7,348.617 816.5,344.5C 817.281,345.729 817.781,347.062 818,348.5C 819.89,368.517 821.557,388.517 823,408.5C 807.995,402.109 792.495,397.442 776.5,394.5 Z"/></g>
<g><path style="opacity:1" fill="#1d2c5f" d="M 2098.5,345.5 C 2109.74,347.643 2120.74,350.31 2131.5,353.5C 2123.17,357.328 2115.17,361.662 2107.5,366.5C 2096.87,362.448 2085.87,359.781 2074.5,358.5C 2074.39,357.883 2074.06,357.383 2073.5,357C 2080.66,353.588 2087.66,349.922 2094.5,346C 2095.79,345.51 2097.13,345.343 2098.5,345.5 Z"/></g>
<g><path style="opacity:1" fill="#c69f0c" d="M 1287.5,357.5 C 1280.53,366.442 1275.36,376.442 1272,387.5C 1264.23,422.355 1273.73,451.355 1300.5,474.5C 1294.93,477.294 1289.6,480.627 1284.5,484.5C 1262.07,463.381 1252.57,437.381 1256,406.5C 1260.76,382.643 1272.42,362.976 1291,347.5C 1290.17,350.852 1289,354.185 1287.5,357.5 Z"/></g>
<g><path style="opacity:0.995" fill="#026aaf" d="M 776.5,332.5 C 777.118,339.817 777.451,347.151 777.5,354.5C 763.5,362.167 749.5,369.833 735.5,377.5C 734.659,378.009 734.159,377.343 734,375.5C 733.3,363.506 732.8,351.506 732.5,339.5C 734.49,338.001 736.823,337.168 739.5,337C 751.853,335.581 764.187,334.081 776.5,332.5 Z"/></g>
<g><path style="opacity:1" fill="#1e2d60" d="M 1547.5,350.5 C 1548.1,350.735 1548.43,351.235 1548.5,352C 1544.38,375.448 1540.55,398.948 1537,422.5C 1527.13,412.963 1516.97,403.797 1506.5,395C 1520.52,380.419 1534.19,365.586 1547.5,350.5 Z"/></g>
<g><path style="opacity:1" fill="#302470" d="M 2131.5,353.5 C 2131.16,360.942 2130.16,368.276 2128.5,375.5C 2121.72,371.91 2114.72,368.91 2107.5,366.5C 2115.17,361.662 2123.17,357.328 2131.5,353.5 Z"/></g>
<g><path style="opacity:0.994" fill="#18366b" d="M 48.5,334.5 C 54.0019,342.832 59.0019,351.499 63.5,360.5C 62.4264,361.885 61.0931,363.051 59.5,364C 46.6121,370.608 33.9455,377.441 21.5,384.5C 15.6793,376.204 10.346,367.537 5.5,358.5C 19.4464,351.192 33.4464,343.859 47.5,336.5C 48.2975,336.043 48.6309,335.376 48.5,334.5 Z"/></g>
<g><path style="opacity:0.962" fill="#7c7e68" d="M 1356.5,374.5 C 1341.44,370.32 1326.44,370.653 1311.5,375.5C 1327.22,357.987 1346.22,353.153 1368.5,361C 1364.63,365.694 1360.63,370.194 1356.5,374.5 Z"/></g>
<g><path style="opacity:0.996" fill="#3c5aa5" d="M 437.5,543.5 C 434.393,544.889 431.393,546.555 428.5,548.5C 410.411,494.395 393.411,439.895 377.5,385C 377.743,384.098 378.077,383.265 378.5,382.5C 398.61,372.189 419.943,368.022 442.5,370C 490.771,378.639 511.937,407.473 506,456.5C 502.014,476.806 493.014,494.473 479,509.5C 465.924,521.928 452.09,533.262 437.5,543.5 Z M 423.5,417.5 C 446.936,420.774 458.27,434.274 457.5,458C 457.295,467.3 455.462,476.134 452,484.5C 453.704,482.627 455.537,480.96 457.5,479.5C 454.604,483.905 451.104,487.905 447,491.5C 438.473,467.085 430.64,442.418 423.5,417.5 Z"/></g>
<g><path style="opacity:0.995" fill="#143f77" d="M 63.5,360.5 C 68.4034,367.964 73.0701,375.631 77.5,383.5C 77.5858,384.496 77.2524,385.329 76.5,386C 62.4504,393.02 48.7838,400.52 35.5,408.5C 30.332,400.836 25.6653,392.836 21.5,384.5C 33.9455,377.441 46.6121,370.608 59.5,364C 61.0931,363.051 62.4264,361.885 63.5,360.5 Z"/></g>
<g><path style="opacity:1" fill="#c59f0d" d="M 378.5,382.5 C 378.077,383.265 377.743,384.098 377.5,385C 393.411,439.895 410.411,494.395 428.5,548.5C 431.393,546.555 434.393,544.889 437.5,543.5C 430.261,549.798 422.595,555.632 414.5,561C 413.256,561.456 412.423,560.956 412,559.5C 394.787,505.696 378.287,451.696 362.5,397.5C 366.719,390.439 371.552,383.772 377,377.5C 378.009,379.025 378.509,380.692 378.5,382.5 Z"/></g>
<g><path style="opacity:1" fill="#c69f0b" d="M 2157.5,454.5 C 2160.26,459.687 2162.76,465.02 2165,470.5C 2176.85,508.122 2174.35,544.788 2157.5,580.5C 2147.38,602.067 2133.38,620.734 2115.5,636.5C 2134.01,612.163 2145.84,584.83 2151,554.5C 2156.41,511.383 2143.58,474.883 2112.5,445C 2078.66,418.761 2040.66,410.095 1998.5,419C 1972.99,424.921 1949.99,435.921 1929.5,452C 1928.55,452.483 1927.55,452.649 1926.5,452.5C 1936.63,441.363 1947.97,431.697 1960.5,423.5C 1994.37,400.357 2031.7,391.524 2072.5,397C 2109.76,403.274 2138.09,422.441 2157.5,454.5 Z"/></g>
<g><path style="opacity:0.994" fill="#104984" d="M 77.5,383.5 C 83.0019,391.832 88.0019,400.499 92.5,409.5C 91.3583,411.433 89.6917,412.933 87.5,414C 75.1398,420.513 62.8065,427.013 50.5,433.5C 44.7486,425.672 39.7486,417.339 35.5,408.5C 48.7838,400.52 62.4504,393.02 76.5,386C 77.2524,385.329 77.5858,384.496 77.5,383.5 Z"/></g>
<g><path style="opacity:0.977" fill="#7c7e68" d="M 464.5,470.5 C 463.659,471.926 462.659,473.26 461.5,474.5C 460.662,474.842 460.328,475.508 460.5,476.5C 459.833,476.5 459.5,476.833 459.5,477.5C 458.833,477.5 458.5,477.833 458.5,478.5C 457.833,478.5 457.5,478.833 457.5,479.5C 455.537,480.96 453.704,482.627 452,484.5C 455.462,476.134 457.295,467.3 457.5,458C 458.27,434.274 446.936,420.774 423.5,417.5C 421.721,413.405 420.388,409.072 419.5,404.5C 437.921,400.811 453.755,405.478 467,418.5C 469.514,422.525 471.181,426.859 472,431.5C 474.558,445.577 472.058,458.577 464.5,470.5 Z"/></g>
<g><path style="opacity:1" fill="#feca06" d="M 2115.5,636.5 C 2079.29,670.185 2036.29,685.352 1986.5,682C 1977.52,680.907 1968.86,678.74 1960.5,675.5C 1953.51,673.506 1946.84,670.673 1940.5,667C 1907.13,646.469 1887.63,616.636 1882,577.5C 1878.9,529.288 1893.73,487.621 1926.5,452.5C 1927.55,452.649 1928.55,452.483 1929.5,452C 1949.99,435.921 1972.99,424.921 1998.5,419C 2040.66,410.095 2078.66,418.761 2112.5,445C 2143.58,474.883 2156.41,511.383 2151,554.5C 2145.84,584.83 2134.01,612.163 2115.5,636.5 Z"/></g>
<g><path style="opacity:0.994" fill="#0c5391" d="M 92.5,409.5 C 98.5857,417.997 103.919,426.997 108.5,436.5C 93.6822,443.407 79.3488,451.073 65.5,459.5C 59.9981,451.168 54.9981,442.501 50.5,433.5C 62.8065,427.013 75.1398,420.513 87.5,414C 89.6917,412.933 91.3583,411.433 92.5,409.5 Z"/></g>
<g><path style="opacity:1" fill="#3566ae" d="M 2049.5,426.5 C 2032.85,428.994 2020.52,437.661 2012.5,452.5C 2005.37,483.252 2017.37,502.085 2048.5,509C 2059.19,510.276 2069.19,508.443 2078.5,503.5C 2094.86,494.787 2102.86,481.121 2102.5,462.5C 2116.33,490.712 2113.33,517.045 2093.5,541.5C 2066.91,566.118 2036.58,571.951 2002.5,559C 1972.49,543.836 1958.33,519.336 1960,485.5C 1962.3,472.237 1967.8,460.57 1976.5,450.5C 1996.6,430.135 2020.93,422.135 2049.5,426.5 Z"/></g>
<g><path style="opacity:1" fill="#c69f0b" d="M 1523.5,513.5 C 1499.91,492.017 1476.24,470.517 1452.5,449C 1451.55,448.517 1450.55,448.351 1449.5,448.5C 1457.13,441.698 1464.3,434.365 1471,426.5C 1495.63,448.13 1519.97,470.13 1544,492.5C 1544.67,493.167 1544.67,493.833 1544,494.5C 1537.6,501.407 1530.76,507.74 1523.5,513.5 Z"/></g>
<g><path style="opacity:1" fill="#c49f11" d="M 2049.5,426.5 C 2051.03,426.517 2051.53,427.184 2051,428.5C 2045.28,434.762 2039.45,440.929 2033.5,447C 2026.19,447.76 2019.19,449.594 2012.5,452.5C 2020.52,437.661 2032.85,428.994 2049.5,426.5 Z"/></g>
<g><path style="opacity:1" fill="#c69f0c" d="M 820.5,684.5 C 835.055,664.393 846.221,642.393 854,618.5C 866.421,574.465 859.754,533.799 834,496.5C 811.074,468.784 781.574,453.284 745.5,450C 707.825,447.468 673.159,456.468 641.5,477C 635.616,481.433 629.616,485.599 623.5,489.5C 668.33,440.056 723.663,421.223 789.5,433C 842.441,449.612 872.608,485.445 880,540.5C 882.459,597.892 862.626,645.892 820.5,684.5 Z"/></g>
<g><path style="opacity:1" fill="#feca06" d="M 820.5,684.5 C 776.938,724.645 725.938,739.145 667.5,728C 630.776,716.937 604.276,694.103 588,659.5C 572.212,619.915 572.878,580.582 590,541.5C 598.423,522.301 609.59,504.968 623.5,489.5C 629.616,485.599 635.616,481.433 641.5,477C 673.159,456.468 707.825,447.468 745.5,450C 781.574,453.284 811.074,468.784 834,496.5C 859.754,533.799 866.421,574.465 854,618.5C 846.221,642.393 835.055,664.393 820.5,684.5 Z"/></g>
<g><path style="opacity:0.994" fill="#085d9d" d="M 108.5,436.5 C 113.403,443.964 118.07,451.631 122.5,459.5C 108.008,466.912 93.6744,474.579 79.5,482.5C 74.5966,475.036 69.9299,467.369 65.5,459.5C 79.3488,451.073 93.6822,443.407 108.5,436.5 Z"/></g>
<g><path style="opacity:1" fill="#c69f0b" d="M 1976.5,450.5 C 1967.8,460.57 1962.3,472.237 1960,485.5C 1958.33,519.336 1972.49,543.836 2002.5,559C 2036.58,571.951 2066.91,566.118 2093.5,541.5C 2074.07,569.223 2047.4,584.556 2013.5,587.5C 1988.06,586.755 1967.56,576.421 1952,556.5C 1935.41,530.183 1935.41,503.85 1952,477.5C 1957.69,468.133 1964.53,459.633 1972.5,452C 1973.74,451.209 1975.08,450.709 1976.5,450.5 Z"/></g>
<g><path style="opacity:1" fill="#c6a00c" d="M 1445.5,451.5 C 1442.1,456.406 1438.1,460.906 1433.5,465C 1407.98,486.81 1378.31,497.477 1344.5,497C 1351.86,489.712 1358.86,482.212 1365.5,474.5C 1394.64,476.689 1421.31,469.022 1445.5,451.5 Z"/></g>
<g><path style="opacity:1" fill="#c6a00d" d="M 2102.5,462.5 C 2102.86,481.121 2094.86,494.787 2078.5,503.5C 2080.5,495.564 2081,487.564 2080,479.5C 2086.68,472.652 2093.51,465.985 2100.5,459.5C 2101.43,460.357 2102.09,461.357 2102.5,462.5 Z"/></g>
<g><path style="opacity:1" fill="#c59f11" d="M 755.5,463.5 C 757.028,463.517 757.528,464.184 757,465.5C 750.833,471.667 744.667,477.833 738.5,484C 732.269,485.222 726.269,487.056 720.5,489.5C 725.577,479.086 733.577,471.586 744.5,467C 748.254,465.691 751.921,464.525 755.5,463.5 Z"/></g>
<g><path style="opacity:1" fill="#3962aa" d="M 755.5,463.5 C 751.921,464.525 748.254,465.691 744.5,467C 733.577,471.586 725.577,479.086 720.5,489.5C 716.922,496.317 715.756,503.65 717,511.5C 718.409,515.894 719.909,520.228 721.5,524.5C 722.157,549.856 721.491,574.856 719.5,599.5C 710.785,597.311 703.118,593.311 696.5,587.5C 697.833,551.167 697.833,514.833 696.5,478.5C 714.022,465.536 733.689,460.536 755.5,463.5 Z"/></g>
<g><path style="opacity:1" fill="#c6a009" d="M 1031.5,467.5 C 1076.15,485.154 1120.81,502.82 1165.5,520.5C 1201.87,581.21 1255.53,614.877 1326.5,621.5C 1326.83,653.84 1326.5,686.174 1325.5,718.5C 1318.25,715.044 1311.25,711.377 1304.5,707.5C 1305.5,686.006 1305.83,664.34 1305.5,642.5C 1234.63,635.428 1180.97,601.594 1144.5,541C 1100.83,523.5 1057.17,506 1013.5,488.5C 1012.48,487.998 1012.31,487.332 1013,486.5C 1019.4,480.271 1025.56,473.938 1031.5,467.5 Z"/></g>
<g><path style="opacity:1" fill="#c6a00b" d="M 1683.5,484.5 C 1674.59,538.787 1665.92,593.12 1657.5,647.5C 1650.58,647.344 1643.91,646.344 1637.5,644.5C 1638.5,644.5 1639.5,644.5 1640.5,644.5C 1647.46,597.738 1654.96,551.072 1663,504.5C 1669.7,497.631 1676.54,490.964 1683.5,484.5 Z"/></g>
<g><path style="opacity:1" fill="#c69f0b" d="M 687.5,485.5 C 665.3,511.344 662.466,539.344 679,569.5C 683.666,576.666 689.5,582.666 696.5,587.5C 703.118,593.311 710.785,597.311 719.5,599.5C 731.145,603.419 743.145,604.419 755.5,602.5C 773.303,599.598 788.637,591.932 801.5,579.5C 776.692,615.718 742.692,629.552 699.5,621C 657,603.833 641.167,572.999 652,528.5C 659.606,510.589 671.439,496.256 687.5,485.5 Z"/></g>
<g><path style="opacity:1" fill="#3b5da7" d="M 696.5,478.5 C 697.833,514.833 697.833,551.167 696.5,587.5C 689.5,582.666 683.666,576.666 679,569.5C 662.466,539.344 665.3,511.344 687.5,485.5C 690.214,482.785 693.214,480.451 696.5,478.5 Z"/></g>
<g><path style="opacity:1" fill="#c59f0e" d="M 809.5,497.5 C 810.618,516.931 802.618,531.264 785.5,540.5C 788.828,532.079 789.161,523.579 786.5,515C 793.348,507.985 800.348,501.152 807.5,494.5C 808.425,495.357 809.092,496.357 809.5,497.5 Z"/></g>
<g><path style="opacity:0.994" fill="#026cb1" d="M 122.5,459.5 C 131.557,473.901 140.224,488.568 148.5,503.5C 137.167,515.833 125.833,528.167 114.5,540.5C 101.857,521.903 90.1902,502.569 79.5,482.5C 93.6744,474.579 108.008,466.912 122.5,459.5 Z"/></g>
<g><path style="opacity:0.995" fill="#125594" d="M 212.5,527.5 C 197.097,533.039 182.097,539.373 167.5,546.5C 164.147,538.617 160.314,530.95 156,523.5C 142.202,529.318 128.369,534.984 114.5,540.5C 125.833,528.167 137.167,515.833 148.5,503.5C 149.117,503.611 149.617,503.944 150,504.5C 164.213,497.644 178.379,490.644 192.5,483.5C 199.696,497.894 206.362,512.56 212.5,527.5 Z"/></g>
<g><path style="opacity:1" fill="#c59f0d" d="M 1792.5,514.5 C 1778.64,551.582 1764.47,588.582 1750,625.5C 1747.21,620.261 1744.71,614.928 1742.5,609.5C 1753.32,584.579 1763.48,559.246 1773,533.5C 1779.37,526.964 1785.87,520.631 1792.5,514.5 Z"/></g>
<g><path style="opacity:1" fill="#c6a00c" d="M 2257.5,524.5 C 2242.99,600.221 2229.32,676.221 2216.5,752.5C 2210.3,751.911 2204.3,750.911 2198.5,749.5C 2200.32,745.937 2201.48,741.937 2202,737.5C 2213.12,672.788 2224.45,608.121 2236,543.5C 2242.97,536.527 2249.97,529.527 2257,522.5C 2257.46,523.094 2257.63,523.761 2257.5,524.5 Z"/></g>
<g><path style="opacity:1" fill="#3466ae" d="M 721.5,524.5 C 729.746,536.397 741.08,543.397 755.5,545.5C 755.5,564.5 755.5,583.5 755.5,602.5C 743.145,604.419 731.145,603.419 719.5,599.5C 721.491,574.856 722.157,549.856 721.5,524.5 Z"/></g>
<g><path style="opacity:1" fill="#395ea9" d="M 519.5,540.5 C 520.497,560.66 520.83,580.993 520.5,601.5C 513.682,607.839 506.515,613.839 499,619.5C 499.636,627.194 501.469,634.527 504.5,641.5C 507.535,654.974 510.869,668.308 514.5,681.5C 517.217,693.797 520.55,705.797 524.5,717.5C 524.5,718.167 524.5,718.833 524.5,719.5C 524.5,720.167 524.833,720.5 525.5,720.5C 525.5,720.833 525.5,721.167 525.5,721.5C 536.829,765.481 548.162,809.481 559.5,853.5C 559.253,854.713 558.586,855.38 557.5,855.5C 500.057,873.425 442.723,891.759 385.5,910.5C 383.515,908.543 382.015,906.21 381,903.5C 375.546,891.595 370.379,879.595 365.5,867.5C 365.5,830.833 365.5,794.167 365.5,757.5C 380.301,789.774 395.134,822.107 410,854.5C 433.548,846.928 457.048,839.262 480.5,831.5C 487.573,829.643 494.573,827.476 501.5,825C 502.578,824.326 503.245,823.326 503.5,822C 484.386,748.043 465.053,674.209 445.5,600.5C 472.771,583.844 497.438,563.844 519.5,540.5 Z"/></g>
<g><path style="opacity:1" fill="#306eb4" d="M 809.5,497.5 C 824.79,526.523 822.123,553.857 801.5,579.5C 788.637,591.932 773.303,599.598 755.5,602.5C 755.5,583.5 755.5,564.5 755.5,545.5C 766.029,546.632 776.029,544.965 785.5,540.5C 802.618,531.264 810.618,516.931 809.5,497.5 Z"/></g>
<g><path style="opacity:0.999" fill="#3764ac" d="M 1090.5,600.5 C 1090.18,616.911 1090.52,633.244 1091.5,649.5C 1069.52,638.845 1047.52,628.178 1025.5,617.5C 1024.5,632.152 1024.17,646.818 1024.5,661.5C 1024.83,696.337 1024.5,731.004 1023.5,765.5C 992.786,769.506 962.12,773.839 931.5,778.5C 931.5,763.833 931.5,749.167 931.5,734.5C 942.01,732.664 952.676,730.997 963.5,729.5C 970.152,728.703 976.819,728.036 983.5,727.5C 983.5,667.833 983.5,608.167 983.5,548.5C 983.56,547.957 983.893,547.624 984.5,547.5C 1019.86,565.18 1055.19,582.847 1090.5,600.5 Z"/></g>
<g><path style="opacity:1" fill="#c69f08" d="M 983.5,548.5 C 983.5,608.167 983.5,667.833 983.5,727.5C 976.819,728.036 970.152,728.703 963.5,729.5C 963.333,675.499 963.5,621.499 964,567.5C 970.369,560.964 976.869,554.631 983.5,548.5 Z"/></g>
<g><path style="opacity:0.994" fill="#154b88" d="M 212.5,527.5 C 218.5,540.833 224.5,554.167 230.5,567.5C 215.055,573.416 200.055,580.082 185.5,587.5C 179.264,574.019 173.264,560.352 167.5,546.5C 182.097,539.373 197.097,533.039 212.5,527.5 Z"/></g>
<g><path style="opacity:0.993" fill="#1d2c5e" d="M 1497.5,664.5 C 1483.29,672.437 1468.96,680.104 1454.5,687.5C 1453.96,687.44 1453.62,687.107 1453.5,686.5C 1458.32,660.889 1462.49,635.222 1466,609.5C 1436.76,628.368 1404.93,640.368 1370.5,645.5C 1369.17,637.765 1369.17,629.932 1370.5,622C 1393.65,619.697 1416.32,615.03 1438.5,608C 1457.78,602.526 1476.11,595.026 1493.5,585.5C 1499.67,583.164 1505.5,580.164 1511,576.5C 1506.62,605.794 1502.12,635.128 1497.5,664.5 Z"/></g>
<g><path style="opacity:0.999" fill="#2e6fb5" d="M 2157.5,580.5 C 2158.5,602.66 2158.83,624.994 2158.5,647.5C 2151.52,656.479 2143.52,664.479 2134.5,671.5C 2132.22,693.846 2129.88,716.18 2127.5,738.5C 2137.87,739.922 2148.21,741.588 2158.5,743.5C 2158.5,757.5 2158.5,771.5 2158.5,785.5C 2133.93,781.524 2109.26,778.191 2084.5,775.5C 2087.46,750.526 2090.13,725.526 2092.5,700.5C 2090.45,700.402 2088.78,701.069 2087.5,702.5C 2054.28,716.817 2019.61,723.151 1983.5,721.5C 1984.73,727.646 1986.06,733.646 1987.5,739.5C 1989.79,756.565 1992.46,773.565 1995.5,790.5C 1995.38,791.107 1995.04,791.44 1994.5,791.5C 1983.5,789.611 1972.5,787.611 1961.5,785.5C 1960.51,748.906 1960.17,712.239 1960.5,675.5C 1968.86,678.74 1977.52,680.907 1986.5,682C 2036.29,685.352 2079.29,670.185 2115.5,636.5C 2133.38,620.734 2147.38,602.067 2157.5,580.5 Z"/></g>
<g><path style="opacity:0.995" fill="#17427b" d="M 230.5,567.5 C 237.439,582.378 244.105,597.378 250.5,612.5C 235.047,618.398 220.047,625.065 205.5,632.5C 198.597,617.686 191.93,602.686 185.5,587.5C 200.055,580.082 215.055,573.416 230.5,567.5 Z"/></g>
<g><path style="opacity:1" fill="#c59f0c" d="M 445.5,600.5 C 465.053,674.209 484.386,748.043 503.5,822C 503.245,823.326 502.578,824.326 501.5,825C 494.573,827.476 487.573,829.643 480.5,831.5C 461.742,759.97 442.742,688.47 423.5,617C 430.369,610.976 437.702,605.476 445.5,600.5 Z"/></g>
<g><path style="opacity:1" fill="#164782" d="M 538.5,629.5 C 537.839,628.282 537.172,626.949 536.5,625.5C 526.09,631.372 515.423,636.705 504.5,641.5C 501.469,634.527 499.636,627.194 499,619.5C 506.515,613.839 513.682,607.839 520.5,601.5C 526.461,596.71 532.294,591.71 538,586.5C 537.232,600.816 537.399,615.149 538.5,629.5 Z"/></g>
<g><path style="opacity:0.993" fill="#21386e" d="M 1091.5,649.5 C 1184.28,695.721 1277.28,741.721 1370.5,787.5C 1357.39,795.226 1344.06,802.726 1330.5,810C 1328.96,811.187 1327.29,811.52 1325.5,811C 1225.14,761.153 1124.81,711.32 1024.5,661.5C 1024.17,646.818 1024.5,632.152 1025.5,617.5C 1047.52,628.178 1069.52,638.845 1091.5,649.5 Z"/></g>
<g><path style="opacity:0.991" fill="#21386e" d="M 1961.5,785.5 C 1972.5,787.611 1983.5,789.611 1994.5,791.5C 1980.75,800.053 1966.58,808.053 1952,815.5C 1881.19,802.67 1810.35,790.004 1739.5,777.5C 1737.52,759.153 1735.35,740.82 1733,722.5C 1721.98,728.507 1710.98,734.507 1700,740.5C 1692.01,726.528 1684.01,712.528 1676,698.5C 1664.3,705.766 1652.13,712.1 1639.5,717.5C 1577.77,707.6 1516.1,697.6 1454.5,687.5C 1468.96,680.104 1483.29,672.437 1497.5,664.5C 1528.91,670.376 1560.57,675.376 1592.5,679.5C 1622.51,685.5 1652.85,690 1683.5,693C 1687.12,671.217 1690.62,649.384 1694,627.5C 1710.08,657.327 1726.41,686.994 1743,716.5C 1752.67,697.833 1762.33,679.167 1772,660.5C 1776.43,691.766 1780.26,723.099 1783.5,754.5C 1842.82,764.829 1902.15,775.163 1961.5,785.5 Z"/></g>
<g><path style="opacity:0.995" fill="#1a376d" d="M 250.5,612.5 C 260.439,634.044 270.105,655.711 279.5,677.5C 265.237,683.757 250.904,689.924 236.5,696C 235.244,696.417 234.577,697.25 234.5,698.5C 224.322,676.803 214.655,654.803 205.5,632.5C 220.047,625.065 235.047,618.398 250.5,612.5 Z"/></g>
<g><path style="opacity:1" fill="#183e76" d="M 538.5,629.5 C 539.895,641.48 542.562,653.146 546.5,664.5C 535.482,669.674 524.815,675.34 514.5,681.5C 510.869,668.308 507.535,654.974 504.5,641.5C 515.423,636.705 526.09,631.372 536.5,625.5C 537.172,626.949 537.839,628.282 538.5,629.5 Z"/></g>
<g><path style="opacity:0.994" fill="#1d2c5e" d="M 279.5,677.5 C 308.167,740.833 336.833,804.167 365.5,867.5C 370.379,879.595 375.546,891.595 381,903.5C 382.015,906.21 383.515,908.543 385.5,910.5C 442.723,891.759 500.057,873.425 557.5,855.5C 544.085,865.719 530.085,875.219 515.5,884C 457.526,902.936 399.526,921.769 341.5,940.5C 305.289,860.077 269.622,779.411 234.5,698.5C 234.577,697.25 235.244,696.417 236.5,696C 250.904,689.924 265.237,683.757 279.5,677.5 Z"/></g>
<g><path style="opacity:1" fill="#1b3469" d="M 546.5,664.5 C 550.757,676.347 556.09,687.68 562.5,698.5C 549.516,704.325 536.849,710.659 524.5,717.5C 520.55,705.797 517.217,693.797 514.5,681.5C 524.815,675.34 535.482,669.674 546.5,664.5 Z"/></g>
<g><path style="opacity:0.991" fill="#1d2c5e" d="M 562.5,698.5 C 588.793,738.907 625.793,763.741 673.5,773C 742.226,780.814 801.559,760.98 851.5,713.5C 854.275,738.799 856.608,764.133 858.5,789.5C 882.848,785.942 907.181,782.275 931.5,778.5C 962.12,773.839 992.786,769.506 1023.5,765.5C 1009.14,774.309 994.142,782.142 978.5,789C 923.894,797.348 869.227,805.182 814.5,812.5C 813.058,791.471 811.225,770.471 809,749.5C 780.727,774.39 748.227,791.556 711.5,801C 631.121,816.285 569.121,789.785 525.5,721.5C 525.5,721.167 525.5,720.833 525.5,720.5C 524.833,720.5 524.5,720.167 524.5,719.5C 524.5,718.833 524.5,718.167 524.5,717.5C 536.849,710.659 549.516,704.325 562.5,698.5 Z"/></g>
<g><path style="opacity:0.995" fill="#302370" d="M 2084.5,775.5 C 2070.04,782.565 2055.7,789.898 2041.5,797.5C 2043.59,773.087 2046.26,748.754 2049.5,724.5C 2058.79,718.853 2068.45,713.686 2078.5,709C 2081.57,706.812 2084.57,704.645 2087.5,702.5C 2088.78,701.069 2090.45,700.402 2092.5,700.5C 2090.13,725.526 2087.46,750.526 2084.5,775.5 Z"/></g>
<g><path style="opacity:0.985" fill="#1d2c5f" d="M 2087.5,702.5 C 2084.57,704.645 2081.57,706.812 2078.5,709C 2068.45,713.686 2058.79,718.853 2049.5,724.5C 2029.78,733.264 2009.11,738.264 1987.5,739.5C 1986.06,733.646 1984.73,727.646 1983.5,721.5C 2019.61,723.151 2054.28,716.817 2087.5,702.5 Z"/></g>
<g><path style="opacity:0.991" fill="#21386e" d="M 2084.5,775.5 C 2109.26,778.191 2133.93,781.524 2158.5,785.5C 2180.84,788.44 2203.18,791.44 2225.5,794.5C 2225.17,813.845 2225.5,833.178 2226.5,852.5C 2275.41,868.247 2324.41,883.581 2373.5,898.5C 2358.81,906.599 2343.97,914.599 2329,922.5C 2280.55,906.74 2232.05,891.073 2183.5,875.5C 2182.7,859.171 2182.04,842.838 2181.5,826.5C 2181.44,823.387 2180.77,820.554 2179.5,818C 2133.31,811.474 2087.31,804.64 2041.5,797.5C 2055.7,789.898 2070.04,782.565 2084.5,775.5 Z"/></g>
<g><path style="opacity:0.802" fill="#000000" d="M 2403.5,847.5 C 2410.5,847.5 2417.5,847.5 2424.5,847.5C 2424.5,848.833 2424.5,850.167 2424.5,851.5C 2421.5,851.5 2418.5,851.5 2415.5,851.5C 2415.5,858.833 2415.5,866.167 2415.5,873.5C 2414.17,873.5 2412.83,873.5 2411.5,873.5C 2411.5,866.167 2411.5,858.833 2411.5,851.5C 2408.83,851.5 2406.17,851.5 2403.5,851.5C 2403.5,850.167 2403.5,848.833 2403.5,847.5 Z"/></g>
<g><path style="opacity:0.694" fill="#000000" d="M 2426.5,847.5 C 2428.83,847.5 2431.17,847.5 2433.5,847.5C 2434.98,854.092 2437.14,860.426 2440,866.5C 2441.89,860.392 2444.05,854.392 2446.5,848.5C 2448.4,847.534 2450.4,847.201 2452.5,847.5C 2452.5,856.167 2452.5,864.833 2452.5,873.5C 2450.83,873.5 2449.17,873.5 2447.5,873.5C 2447.67,868.156 2447.5,862.823 2447,857.5C 2445.33,862.5 2443.67,867.5 2442,872.5C 2440.33,873.833 2438.67,873.833 2437,872.5C 2435.33,867.5 2433.67,862.5 2432,857.5C 2431.5,862.823 2431.33,868.156 2431.5,873.5C 2429.83,873.5 2428.17,873.5 2426.5,873.5C 2426.5,864.833 2426.5,856.167 2426.5,847.5 Z"/></g>
</svg>
